<svg xmlns="http://www.w3.org/2000/svg" viewBox="0 0 200 200" width="200" height="200">
  <circle cx="100" cy="100" r="100" fill="#E3F2FD"/>
  <circle cx="100" cy="85" r="45" fill="#F5CBA7"/>
  <ellipse cx="100" cy="155" rx="55" ry="40" fill="#42A5F5"/>
  <circle cx="82" cy="78" r="6" fill="#2D3436"/>
  <circle cx="118" cy="78" r="6" fill="#2D3436"/>
  <circle cx="84" cy="76" r="2" fill="#fff"/>
  <circle cx="120" cy="76" r="2" fill="#fff"/>
  <line x1="88" y1="97" x2="112" y2="97" stroke="#2D3436" stroke-width="2.5" stroke-linecap="round"/>
  <path d="M50 60 Q55 25 100 20 Q145 25 150 60 Q145 50 100 45 Q55 50 50 60Z" fill="#5D4037"/>
  <path d="M55 58 Q60 52 70 50" stroke="#4E342E" stroke-width="2" fill="none"/>
  <path d="M145 58 Q140 52 130 50" stroke="#4E342E" stroke-width="2" fill="none"/>
  <rect x="78" y="125" width="44" height="5" rx="2.5" fill="#FFD54F"/>
  <circle cx="90" cy="127" r="2" fill="#fff"/>
  <circle cx="100" cy="127" r="2" fill="#42A5F5"/>
  <circle cx="110" cy="127" r="2" fill="#FF7043"/>
  <text x="100" y="150" text-anchor="middle" font-size="18">🔍</text>
</svg>
